<svg id="Layer_1" enable-background="new 0 0 512 512" height="512" viewBox="0 0 512 512" width="512" xmlns="http://www.w3.org/2000/svg"><path d="m256 54.09c-111.51 0-201.91 90.4-201.91 201.91s90.4 201.91 201.91 201.91 201.91-90.4 201.91-201.91-90.4-201.91-201.91-201.91zm118.13 244.21c-9.88 27.33-25.56 47.19-46.6 59.04-25.97 14.63-47.8 13.96-54.02 12.47-8.36-2.01-24.24-7.34-30.72-14.57l-8.53-9.51-2.74 12.47c-.06.27-5.94 26.96-10.4 38.54-4.41 11.47-13.07 28.01-19.37 34.73-2.51 2.68-4.18 4.31-5.59 5.44l-6.25 5.05c-.3-.11-.61-.21-.91-.32l-2.44-8.62c-.88-3.12-1.51-7.4-1.87-12.74-1.14-17.13 2.91-46.61 6.14-60.43 3.5-14.93 18.09-74.55 18.09-74.55s-11.08-38.37.9-58.36c8.9-14.85 18.74-19.51 28.25-19.51 22.13 0 25.96 23.03 22.8 38.85-1.98 9.88-5.78 24.27-8.84 35.82-3.32 12.57-5.07 19.26-5.33 22.06-1.96 21.55 9.88 29.85 17.11 32.88 18 7.55 44.83-1.39 58.57-29.41 13.18-26.87 17.59-61.19 15.6-74.63-.11-.77-3.55-46.8-45.43-63.3-43.42-17.11-76.64 2.64-80.26 4.86-9.55 5.88-32.81 22.04-42.41 45.09-5.41 12.97-7.83 28.72-6.32 41.09 1.68 13.77 8.76 27.69 14.6 33.77 3.12 3.25 2.28 5.58 1.55 9.56-.68 3.7-2.83 14.49-5.36 17.02s-6.9 2.4-8.38 1.82c-4.13-2.06-18.24-9.91-26.44-24.12-10.24-17.76-12.52-44.11-6.42-74.2 7-34.54 36.94-63.39 63.49-76.66 33.4-16.69 68.14-21.17 97.8-12.62 38.37 11.06 63.9 31.34 78.05 62.01 15.73 34.03 9.62 79.04 1.68 100.98z" fill="#f44336"/></svg>